<?xml version="1.0" encoding="utf-8"?>
<!-- Generator: Adobe Illustrator 17.0.0, SVG Export Plug-In . SVG Version: 6.00 Build 0)  -->
<!DOCTYPE svg PUBLIC "-//W3C//DTD SVG 1.1//EN" "http://www.w3.org/Graphics/SVG/1.1/DTD/svg11.dtd">
<svg version="1.1" id="Capa_1" xmlns="http://www.w3.org/2000/svg" xmlns:xlink="http://www.w3.org/1999/xlink" x="0px" y="0px"
	 width="28.77px" height="19.287px" viewBox="0 0 28.77 19.287" enable-background="new 0 0 28.77 19.287" xml:space="preserve">
<path d="M28.475,5.765c-0.508-1.274-1.612-2.234-3.373-2.934c-0.143-0.057-0.294-0.107-0.45-0.151
	c-1.571-0.438-3.564-0.173-5.004,0.978c-0.637-1.73-2.205-2.986-3.775-3.424C15.716,0.19,15.561,0.155,15.41,0.13
	c-1.869-0.312-3.31-0.06-4.404,0.766c-1.085,0.82-1.738,2.173-1.942,4.023c-0.493,4.492,5.539,13.604,5.795,13.989
	c0.117,0.176,0.289,0.296,0.48,0.348c0.191,0.054,0.402,0.04,0.593-0.052c0.417-0.197,10.225-4.893,12.123-8.992
	C28.837,8.523,28.978,7.028,28.475,5.765z M26.736,10.561c0,0,0.978-4.696-2.949-6.452C23.787,4.108,28.904,4.761,26.736,10.561z
	 M8.097,5.67c0.006-0.05,0.014-0.098,0.02-0.148c-0.969,0.346-1.898,1.17-2.261,2.263c-0.961-0.718-2.262-0.849-3.273-0.53
	c-0.1,0.03-0.198,0.068-0.289,0.107C1.162,7.853,0.465,8.499,0.161,9.339c-0.301,0.832-0.178,1.802,0.366,2.883
	c1.322,2.627,7.842,5.463,8.118,5.583c0.126,0.053,0.263,0.058,0.386,0.02c0.124-0.04,0.233-0.121,0.306-0.239
	c0.069-0.112,0.821-1.345,1.606-2.936C9.382,11.673,7.837,8.033,8.097,5.67z M1.638,12.149c-1.646-1.646,0-3.398,0-3.398
	C0.493,10.754,1.638,12.149,1.638,12.149z"/>
</svg>
