<?xml version="1.0" encoding="iso-8859-1"?>
<!-- Generator: Adobe Illustrator 16.0.4, SVG Export Plug-In . SVG Version: 6.00 Build 0)  -->
<!DOCTYPE svg PUBLIC "-//W3C//DTD SVG 1.1//EN" "http://www.w3.org/Graphics/SVG/1.1/DTD/svg11.dtd">
<svg version="1.1" id="Capa_1" xmlns="http://www.w3.org/2000/svg" xmlns:xlink="http://www.w3.org/1999/xlink" x="0px" y="0px"
	 width="20px" height="20px" viewBox="0 0 20 20" style="enable-background:new 0 0 20 20;" xml:space="preserve">
<path style="fill:#010002;" d="M4,20h12c2.2,0,4-1.8,4-4V4c0-2.2-1.8-4-4-4H4C1.8,0,0,1.8,0,4v12C0,18.2,1.8,20,4,20z M14.062,8.074
	c0.846,0,1.535,0.688,1.535,1.537s-0.689,1.535-1.535,1.535c-0.851,0-1.54-0.686-1.54-1.535S13.212,8.074,14.062,8.074z
	 M11.048,7.16c0.288-0.059,0.564,0.133,0.619,0.42l0.714,3.715c0,0,0.077,0.445,0.496,0.33c0.283-0.08,0.624-0.117,1.037-0.117
	h0.146h0.146c0.413,0,0.753,0.037,1.037,0.117c0.419,0.115,0.495-0.33,0.495-0.33l0.715-3.715c0.055-0.287,0.331-0.479,0.619-0.42
	c0.286,0.057,0.474,0.332,0.419,0.619c0,0-0.823,4.361-0.938,4.879c-0.114,0.518-0.797,0.654-0.797,0.654l-0.076,3.057H14.06H12.44
	l-0.077-3.057c0,0-0.682-0.137-0.797-0.654c-0.114-0.518-0.938-4.879-0.938-4.879C10.574,7.492,10.762,7.217,11.048,7.16z
	 M4.36,6.516l0.271-2.18l0.866,1.525l1.56-2.23L6.991,6.084l1.776-0.846L7.726,7.312L9.81,6.922L7.958,8.926l0.855-1.383
	L7.267,7.629l0.486-1.439L6.495,6.711L6.53,5.127L5.537,6.461L4.875,5.445L4.58,7.029L3.534,6.604L3.66,7.947L2.784,5.885
	L4.36,6.516z M7.025,9.611c0,0.85-0.688,1.535-1.536,1.535c-0.85,0-1.539-0.686-1.539-1.535S4.64,8.074,5.489,8.074
	C6.338,8.074,7.025,8.762,7.025,9.611z M2.945,12.746c0.379-0.77,0.962-1.238,2.396-1.238h0.148h0.146
	c1.436,0,1.71,0.422,2.397,1.238c0.508,0.604,0.519,0.713,0.876,1.238l1.113-0.502c0.263-0.121,0.579-0.002,0.699,0.266
	c0.119,0.266,0.001,0.578-0.266,0.697l-1.584,0.713c-0.07,0.033-0.144,0.047-0.217,0.047s-0.141-0.031-0.206-0.059l-0.014,0.01
	l-0.02-0.02c-0.103-0.053-1.229-1.266-1.229-1.266L7.11,16.369H3.869l-0.075-2.498l-0.242,2.498H2.5
	C2.632,14.928,2.829,12.986,2.945,12.746z"/>
<g>
</g>
<g>
</g>
<g>
</g>
<g>
</g>
<g>
</g>
<g>
</g>
<g>
</g>
<g>
</g>
<g>
</g>
<g>
</g>
<g>
</g>
<g>
</g>
<g>
</g>
<g>
</g>
<g>
</g>
</svg>
