<?xml version="1.0" encoding="iso-8859-1"?>
<!-- Generator: Adobe Illustrator 17.0.0, SVG Export Plug-In . SVG Version: 6.00 Build 0)  -->
<!DOCTYPE svg PUBLIC "-//W3C//DTD SVG 1.1//EN" "http://www.w3.org/Graphics/SVG/1.1/DTD/svg11.dtd">
<svg version="1.1" id="Capa_1" xmlns="http://www.w3.org/2000/svg" xmlns:xlink="http://www.w3.org/1999/xlink" x="0px" y="0px"
	 width="64px" height="64px" viewBox="0 0 64 64" style="enable-background:new 0 0 64 64;" xml:space="preserve">
<g>
	<path d="M54.474,12.938l-0.986-4.002c-0.176-0.713-0.924-1.142-1.671-0.958c-0.27,0.067-0.501,0.206-0.68,0.388V1.667H11.625v6.31
		c-0.743-0.177-1.484,0.25-1.659,0.96l-0.991,4.023l-0.109-0.033c0,0-3.261,12.381-1.739,17.526
		c1.522,5.145,10.667,14.202,10.667,14.202l3.535,16.303c0,0,5.652,1.377,10.362,1.377c4.71,0,10.362-1.377,10.362-1.377
		l3.535-16.303c0,0,9.145-9.057,10.666-14.202s-1.739-17.526-1.739-17.526L54.474,12.938z M51.293,11.674
		c-0.052,0-0.104-0.002-0.156,0.004v-0.636L51.293,11.674z M43.115,4.553h2.374v2.834l-0.614,5.212h-1.13l-0.629-5.212V4.553z
		 M45.435,13.501v2.192h-2.267v-2.192H45.435z M31.793,5.478c0.844-0.87,2.065-1.304,3.663-1.304s2.818,0.435,3.663,1.304
		c1.127,1.026,1.691,2.563,1.691,4.611c0,2.007-0.564,3.544-1.691,4.611c-0.844,0.87-2.065,1.304-3.663,1.304
		s-2.818-0.435-3.663-1.304c-1.132-1.067-1.699-2.604-1.699-4.611C30.094,8.041,30.661,6.504,31.793,5.478z M19.387,5.864
		c0.996-1.091,2.313-1.637,3.951-1.637c1.421,0,2.562,0.36,3.424,1.081s1.356,1.619,1.483,2.696h-2.298
		c-0.177-0.763-0.609-1.297-1.297-1.6c-0.384-0.167-0.811-0.25-1.282-0.25c-0.9,0-1.639,0.339-2.218,1.019
		c-0.579,0.677-0.868,1.699-0.868,3.061c0,1.373,0.313,2.343,0.94,2.913s1.34,0.856,2.138,0.856c0.784,0,1.426-0.225,1.926-0.675
		c0.5-0.449,0.809-1.039,0.925-1.767h-2.586V9.694h4.656v5.998h-1.547L26.5,14.297c-0.45,0.528-0.854,0.901-1.213,1.117
		c-0.617,0.378-1.375,0.566-2.275,0.566c-1.481,0-2.695-0.513-3.64-1.538c-0.986-1.031-1.479-2.441-1.479-4.229
		C17.893,8.405,18.391,6.956,19.387,5.864z M48.066,29.727c-2.504,2.844-16.376,8.566-16.376,8.566s-13.871-5.722-16.376-8.566
		c-2.206-2.505-2.77-6.57-2.802-9.92h38.355C50.837,23.158,50.272,27.222,48.066,29.727z"/>
	<circle cx="31.691" cy="28.768" r="6.909"/>
	<path d="M35.456,14.024c0.925,0,1.659-0.341,2.203-1.024c0.543-0.682,0.815-1.653,0.815-2.912c0-1.254-0.272-2.223-0.815-2.908
		c-0.544-0.685-1.278-1.028-2.203-1.028c-0.925,0-1.663,0.341-2.214,1.024c-0.551,0.682-0.827,1.653-0.827,2.912
		c0,1.259,0.276,2.229,0.827,2.912C33.792,13.683,34.531,14.024,35.456,14.024z"/>
</g>
</svg>
