<?xml version="1.0" encoding="utf-8"?>
<!-- Generator: Adobe Illustrator 15.0.0, SVG Export Plug-In . SVG Version: 6.00 Build 0)  -->
<!DOCTYPE svg PUBLIC "-//W3C//DTD SVG 1.1//EN" "http://www.w3.org/Graphics/SVG/1.1/DTD/svg11.dtd">
<svg version="1.1" id="Layer_1" xmlns="http://www.w3.org/2000/svg" xmlns:xlink="http://www.w3.org/1999/xlink" x="0px" y="0px"
	 width="64px" height="64px" viewBox="0 0 64 64" enable-background="new 0 0 64 64" xml:space="preserve">
<g>
	<path fill="#231F20" d="M40.655,5.478L22.588,15.643L3.485,8.006v41.529l19.189,5.276l17.781-4.946l20.061,8.656V13.016
		L40.655,5.478z M46.674,24.238c1.443,0.075,2.024,0.966,2.338,1.629c0.096,0.205,0.009,0.452-0.196,0.549
		c-0.058,0.026-0.117,0.04-0.177,0.04c-0.155,0-0.303-0.088-0.374-0.238c-0.368-0.779-0.84-1.115-1.632-1.155
		c-0.229-0.012-0.403-0.206-0.393-0.435C46.252,24.403,46.423,24.226,46.674,24.238z M14.814,32.554
		c-0.081,0.11-0.207,0.17-0.334,0.17c-0.086,0-0.171-0.025-0.244-0.08c-0.71-0.516-1.372-1.113-1.968-1.778
		c-0.153-0.17-0.138-0.431,0.031-0.583c0.169-0.153,0.431-0.139,0.584,0.03c0.555,0.622,1.176,1.181,1.84,1.664
		C14.907,32.11,14.949,32.37,14.814,32.554z M19.202,34.559l-0.015-0.001c-0.859-0.047-1.744-0.253-2.625-0.61
		c-0.213-0.085-0.314-0.326-0.228-0.537c0.085-0.211,0.327-0.313,0.538-0.228c0.797,0.322,1.59,0.508,2.361,0.551
		c0.227,0.012,0.403,0.207,0.388,0.435C19.609,34.388,19.428,34.559,19.202,34.559z M24.146,32.659
		c-0.75,0.677-1.492,1.157-2.271,1.463c-0.049,0.021-0.101,0.03-0.152,0.03c-0.164,0-0.319-0.099-0.382-0.261
		c-0.085-0.212,0.02-0.453,0.23-0.536c0.694-0.274,1.337-0.691,2.022-1.311c0.167-0.152,0.43-0.139,0.584,0.03
		C24.328,32.245,24.315,32.506,24.146,32.659z M27.71,28.979c-0.615,0.514-1.183,1.138-1.759,1.785
		c-0.082,0.092-0.196,0.138-0.31,0.138c-0.098,0-0.196-0.033-0.274-0.104c-0.17-0.151-0.187-0.413-0.033-0.583
		c0.598-0.673,1.188-1.322,1.848-1.87c0.174-0.145,0.437-0.123,0.583,0.053C27.91,28.574,27.887,28.834,27.71,28.979z
		 M32.595,27.681c-0.062,0.169-0.219,0.275-0.391,0.275c-0.046,0-0.092-0.008-0.138-0.024c-0.617-0.219-1.196-0.282-1.851-0.191
		c-0.134,0.025-0.28,0.059-0.422,0.098c-0.223,0.062-0.449-0.068-0.511-0.287c-0.059-0.219,0.068-0.446,0.288-0.509
		c0.166-0.046,0.337-0.085,0.513-0.118c0.853-0.121,1.518-0.035,2.257,0.228C32.557,27.23,32.67,27.466,32.595,27.681z
		 M36.883,30.506c-0.076,0.136-0.216,0.213-0.361,0.213c-0.067,0-0.137-0.018-0.198-0.052c-0.611-0.336-1.187-0.773-1.743-1.194
		l-0.411-0.308c-0.182-0.137-0.221-0.396-0.085-0.578c0.139-0.185,0.398-0.22,0.579-0.085l0.414,0.312
		c0.562,0.422,1.087,0.821,1.645,1.129C36.922,30.055,36.993,30.306,36.883,30.506z M41.598,30.268
		c-0.171,0.129-0.344,0.237-0.517,0.324c-0.704,0.398-1.382,0.631-2.057,0.7c-0.014,0.001-0.027,0.002-0.041,0.002
		c-0.212,0-0.39-0.159-0.41-0.371c-0.025-0.228,0.141-0.431,0.369-0.454c0.557-0.058,1.131-0.256,1.752-0.606
		c0.15-0.077,0.277-0.159,0.401-0.253c0.182-0.138,0.441-0.104,0.578,0.078C41.813,29.871,41.779,30.13,41.598,30.268z
		 M44.834,26.174c-0.401,0.467-0.789,1.041-1.166,1.596l-0.313,0.458c-0.081,0.115-0.209,0.18-0.341,0.18
		c-0.08,0-0.163-0.025-0.235-0.074c-0.186-0.13-0.234-0.387-0.104-0.575l0.309-0.454c0.39-0.574,0.792-1.167,1.219-1.667
		c0.15-0.175,0.41-0.195,0.583-0.048C44.958,25.74,44.981,26.001,44.834,26.174z M54.156,30.452c-0.021,0-0.039-0.001-0.063-0.004
		c-1.087-0.164-2.281-0.239-3.481-0.229c-0.023,0.307-0.049,0.617-0.065,0.926c-0.057,1.045-0.116,2.124-0.439,3.164
		c-0.053,0.178-0.216,0.291-0.394,0.291c-0.039,0-0.081-0.006-0.122-0.02c-0.217-0.067-0.339-0.299-0.271-0.517
		c0.29-0.942,0.345-1.924,0.4-2.964c0.019-0.286,0.042-0.572,0.06-0.858c-1.476,0.065-2.806,0.267-3.844,0.599
		c-0.044,0.014-0.085,0.021-0.127,0.021c-0.173,0-0.336-0.112-0.391-0.288c-0.072-0.217,0.047-0.449,0.265-0.52
		c1.034-0.331,2.321-0.538,3.745-0.621c-0.125-0.248-0.243-0.511-0.353-0.815c-0.079-0.214,0.031-0.451,0.249-0.527
		c0.216-0.078,0.45,0.032,0.526,0.248c0.044,0.115,0.088,0.214,0.132,0.318c0.115-0.564,0.29-1.165,0.601-1.759
		c0.105-0.203,0.359-0.279,0.558-0.174c0.203,0.107,0.281,0.356,0.175,0.559c-0.375,0.711-0.536,1.46-0.624,2.109
		c1.212-0.007,2.423,0.074,3.524,0.24c0.226,0.034,0.382,0.244,0.348,0.47C54.534,30.306,54.357,30.452,54.156,30.452z"/>
</g>
</svg>
