<?xml version="1.0" encoding="utf-8"?>
<!-- Generator: Adobe Illustrator 15.0.0, SVG Export Plug-In . SVG Version: 6.00 Build 0)  -->
<!DOCTYPE svg PUBLIC "-//W3C//DTD SVG 1.1//EN" "http://www.w3.org/Graphics/SVG/1.1/DTD/svg11.dtd">
<svg version="1.1" id="Layer_1" xmlns="http://www.w3.org/2000/svg" xmlns:xlink="http://www.w3.org/1999/xlink" x="0px" y="0px"
	 width="64px" height="64px" viewBox="0 0 64 64" enable-background="new 0 0 64 64" xml:space="preserve">
<g>
	<g>
		<path fill="#231F20" d="M51.115,4.41h-0.002c-0.637,0.542-1.951,1.462-2.763,1.623c-0.095,0.019-0.155,0.019-0.187,0.021
			c-0.347-0.458-0.894-0.664-1.48-0.544c-1.765,0.352-4.644,4.611-5.786,6.407L25.649,33.203l-0.815-0.545l-1.729,2.582l1.29,0.858
			L11.016,56.119l5.41,5.048l0.29-0.196c0.536-0.36,12.902-8.806,14.813-20.109l2.1,1.402l1.274-1.907l2.826,1.888l0.596-0.541
			c0.129-0.113,12.86-11.747,14.495-36.435l0.163-2.435L51.115,4.41z M33.387,41.043l-1.71-1.143v-0.008l-6.788-4.534l-0.005,0.008
			l-0.555-0.37l0.748-1.116l9.053,6.051L33.387,41.043z M47.89,24.415c-0.066-2.698-0.509-7.144-2.655-7.695
			c-0.642-0.164-1.147-0.922-1.357-2.026c-0.27-1.429,0.046-2.979,0.706-3.455c0.063-0.046,0.204-0.148,0.444-0.148
			c0.171,0,0.39,0.052,0.669,0.207c0.808,0.453,1.788,0.453,2.833-0.002c1.162-0.506,2.312-1.545,3.1-2.588
			C50.927,14.834,49.535,20.062,47.89,24.415z"/>
	</g>
	<g>
		<path fill="#231F20" d="M47.938,28.829l-0.446-0.414l-0.252,0.553c-0.123,0.265-1.182,2.629-0.932,3.886
			c0.247,1.248,1.159,2.153,2.168,2.154c0.106,0,0.215-0.011,0.321-0.031c1.098-0.221,1.766-1.527,1.489-2.916
			C50.036,30.805,48.152,29.027,47.938,28.829z M48.625,34.114c-0.049,0.008-0.098,0.014-0.148,0.014
			c-0.57,0-1.145-0.635-1.307-1.445c-0.126-0.646,0.291-1.922,0.622-2.762c0.628,0.65,1.502,1.667,1.632,2.313
			C49.603,33.132,49.236,33.991,48.625,34.114z"/>
	</g>
	<g>
		<path fill="#231F20" d="M49.446,25.469l-0.445-0.414l-0.255,0.553c-0.104,0.229-0.438,1.013-0.34,1.509
			c0.112,0.563,0.546,0.972,1.028,0.972l0.169-0.018c0.23-0.046,0.433-0.187,0.572-0.395c0.172-0.262,0.23-0.606,0.163-0.943
			C50.241,26.237,49.63,25.64,49.446,25.469z M49.432,27.208c-0.036-0.009-0.129-0.096-0.162-0.263
			c-0.012-0.056,0.007-0.173,0.044-0.316c0.091,0.12,0.15,0.22,0.162,0.276C49.51,27.073,49.453,27.189,49.432,27.208z"/>
	</g>
</g>
</svg>
