<?xml version="1.0" encoding="utf-8"?>
<!-- Generator: Adobe Illustrator 15.0.0, SVG Export Plug-In . SVG Version: 6.00 Build 0)  -->
<!DOCTYPE svg PUBLIC "-//W3C//DTD SVG 1.1//EN" "http://www.w3.org/Graphics/SVG/1.1/DTD/svg11.dtd">
<svg version="1.1" id="Layer_1" xmlns="http://www.w3.org/2000/svg" xmlns:xlink="http://www.w3.org/1999/xlink" x="0px" y="0px"
	 width="64px" height="64px" viewBox="0 0 64 64" enable-background="new 0 0 64 64" xml:space="preserve">
<g>
	<path fill="#231F20" d="M59.163,19.248v-4.033H58.93v-1.432h-2.558v1.432c-3.428,0.004-25.348,0.028-35.864,0.036l-1.389-2.875
		l-2.708-0.722v3.599h-0.273c-1.488,0-4.498,1.572-6.041,4.418c-0.996,1.838-1.674,4.814,0.753,8.548l0.667,1.022l0.167-1.209
		c0.04-0.285,0.147-0.616,0.236-0.747c0.09,0.07,0.299,0.283,0.615,0.896c0.008,0.018,0.795,1.783-2.685,6.079
		c-3.775,4.66-5.998,16.521-6.1,17.104v0.981h15.117v-1.329c2.695-3.026,4.342-8.956,5.281-13.736
		c0.306,0.055,0.611,0.081,0.909,0.081h4.5c2.958,0,6.924-3.072,6.924-6.215c0-0.955-0.253-1.896-0.725-2.721h23.405v-4.034h1.087
		v-5.144H59.163z M29.558,36.45h-4.5c-0.272,0-0.556-0.038-0.838-0.093l0.767-4.615c0.723,1.443,1.757,2.438,3.1,2.962
		c0.183,0.07,0.377,0.106,0.576,0.106c0.65,0,1.245-0.406,1.48-1.014c0.317-0.817-0.09-1.74-0.905-2.062
		c-1.354-0.522-2.197-2.068-2.525-3.347h7.918c0.606,0.803,0.938,1.75,0.938,2.758C35.569,33.707,32.042,36.45,29.558,36.45z"/>
</g>
</svg>
