<?xml version="1.0" encoding="utf-8"?>
<!-- Generator: Adobe Illustrator 17.0.0, SVG Export Plug-In . SVG Version: 6.00 Build 0)  -->
<!DOCTYPE svg PUBLIC "-//W3C//DTD SVG 1.1//EN" "http://www.w3.org/Graphics/SVG/1.1/DTD/svg11.dtd">
<svg version="1.1" id="Capa_1" xmlns="http://www.w3.org/2000/svg" xmlns:xlink="http://www.w3.org/1999/xlink" x="0px" y="0px"
	 width="52px" height="52px" viewBox="0 0 52 52" enable-background="new 0 0 52 52" xml:space="preserve">
<path d="M49.195,27.66c-0.266-2.849-1.091-5.943-1.819-8.672c-0.47-1.762-0.914-3.425-1.15-4.806c-0.062-0.358-0.086-0.75-0.11-1.13
	c-0.082-1.313-0.184-2.947-2.168-2.951c-0.653,0-1.174,0.2-1.548,0.594c-0.488,0.515-0.696,1.323-0.635,2.469
	c0.017,0.326-0.039,0.506-0.097,0.567c-0.02,0.019-0.086,0.138-0.602-0.082c-1.218-0.521-2.498-0.785-3.804-0.785
	c-3.185,0-6.247,1.614-8.401,4.427c-0.601,0.784-1.249,1.193-1.497,1.223c-0.193,0.023-0.387,0.062-0.564,0.098
	c-0.13,0.026-0.246,0.052-0.339,0.061c-0.174-0.168-0.561-0.675-0.878-1.091l-0.219-0.287c-2.158-2.816-5.226-4.431-8.416-4.431
	c-1.825,0-3.572,0.505-5.192,1.501c-0.236,0.145-0.405,0.23-0.523,0.28c0.044-0.289,0.081-0.581,0.109-0.878
	c0.115-1.258,0.158-2.357-0.484-3.06C10.493,10.305,9.944,10.1,9.223,10.1c-2.054,0.005-2.28,1.809-2.444,3.127
	c-0.022,0.177-0.044,0.352-0.07,0.521c-0.278,1.856-0.855,3.758-1.466,5.771c-0.787,2.594-1.601,5.275-1.86,8.142
	c-0.092,1.021,0.131,2.653,0.497,3.639c2.282,6.147,6.5,9.397,12.199,9.397c3.771,0,7.07-1.552,9.803-4.612
	c0.46-0.512,1.037-0.491,1.473,0.047c2.453,3.029,5.64,4.566,9.471,4.566c5.987,0,10.505-3.509,12.083-9.385
	C49.165,30.356,49.293,28.718,49.195,27.66z M38.017,27.915c1.495,0,2.65,1.129,2.688,2.624c0.022,0.835-0.208,1.505-0.682,1.991
	c-0.47,0.482-1.153,0.747-1.923,0.747c-1.397,0-2.835-0.888-2.877-2.584c-0.041-1.628,0.663-2.472,2.282-2.737
	C37.68,27.929,37.851,27.915,38.017,27.915z M14.866,27.957c0.176-0.028,0.347-0.042,0.514-0.042c1.494,0,2.649,1.129,2.688,2.624
	c0.021,0.835-0.209,1.505-0.683,1.991c-0.47,0.482-1.153,0.747-1.924,0.747c-1.397,0-2.834-0.887-2.876-2.584
	C12.543,29.066,13.247,28.222,14.866,27.957z"/>
</svg>
