<?xml version="1.0" encoding="utf-8"?>
<!-- Generator: Adobe Illustrator 17.0.0, SVG Export Plug-In . SVG Version: 6.00 Build 0)  -->
<!DOCTYPE svg PUBLIC "-//W3C//DTD SVG 1.1//EN" "http://www.w3.org/Graphics/SVG/1.1/DTD/svg11.dtd">
<svg version="1.1" id="Layer_1" xmlns="http://www.w3.org/2000/svg" xmlns:xlink="http://www.w3.org/1999/xlink" x="0px" y="0px"
	 width="26px" height="26px" viewBox="0 0 26 26" enable-background="new 0 0 26 26" xml:space="preserve">
<path d="M12.569,19.368c-0.947,0-1.714-0.767-1.714-1.714s0.767-1.714,1.714-1.714c0.947,0,1.714,0.767,1.714,1.714
	S13.516,19.368,12.569,19.368z M10.606,15.004c0-0.478-0.387-0.865-0.865-0.865c-0.478,0-0.865,0.387-0.865,0.865
	c0,0.478,0.387,0.865,0.865,0.865C10.219,15.869,10.606,15.482,10.606,15.004z M16.088,15.004c0-0.478-0.387-0.865-0.865-0.865
	s-0.865,0.387-0.865,0.865c0,0.478,0.387,0.865,0.865,0.865S16.088,15.482,16.088,15.004z M16.423,20.309
	c0.001,0.848-1.557,2.926-3.605,2.934c-0.001,0-0.014,0-0.014,0c-2.04,0-3.594-1.746-3.594-2.621c0-0.241,0.098-0.391,0.181-0.477
	c0.129-0.133,0.444-0.277,0.898-0.123c0.494,0.17,1.489,0.455,2.608,0.455c0.904,0,1.663-0.188,2.254-0.561
	c0.262-0.164,0.474-0.24,0.668-0.24C16.174,19.676,16.423,19.936,16.423,20.309z M15.382,20.765
	c-0.688,0.374-1.523,0.563-2.485,0.563c-1.14,0-2.159-0.265-2.74-0.453c0.077,0.143,0.207,0.33,0.412,0.539
	c0.29,0.293,1.088,0.979,2.235,0.979v0.424l0.011-0.424c0.96-0.004,1.703-0.616,2.059-0.979
	C15.103,21.182,15.27,20.955,15.382,20.765z M18.453,10.268c0,0-0.065-0.21-0.186-0.553c-0.531-1.513-0.726-6.739-5.9-6.739
	s-5.39,4.39-5.647,6.739c-0.021,0.19-0.035,0.376-0.035,0.553C6.686,10.268,11.719,13.711,18.453,10.268z M19.693,10.541
	c0,0-1.878,1.844-7.125,1.986c-5.246,0.142-7.053-1.986-7.053-1.986c-0.92,0-1.667,0.746-1.667,1.666
	c0,0.92,0.746,1.666,1.667,1.666c0,0,6.566-2.082,14.177,0c0,0,1.666-0.746,1.666-1.666C21.359,11.287,20.614,10.541,19.693,10.541z
	"/>
</svg>
