<?xml version="1.0" encoding="utf-8"?>
<!-- Generator: Adobe Illustrator 16.0.0, SVG Export Plug-In . SVG Version: 6.00 Build 0)  -->
<!DOCTYPE svg PUBLIC "-//W3C//DTD SVG 1.1//EN" "http://www.w3.org/Graphics/SVG/1.1/DTD/svg11.dtd">
<svg version="1.1" id="Layer_1" xmlns="http://www.w3.org/2000/svg" xmlns:xlink="http://www.w3.org/1999/xlink" x="0px" y="0px"
	 width="126px" height="126px" viewBox="0 0 126 126" enable-background="new 0 0 126 126" xml:space="preserve">
<path d="M116.668,80.058c-0.479-1.585-1.352-2.801-2.408-3.848l-0.426-1.473l-0.928,0.269c-2.769-2.214-6.131-3.894-7.454-7.553
	c-0.061-0.17-0.094-0.334-0.145-0.501l0.315-1.567l-0.652-0.131c-0.184-2.112,0.373-4.1,0.596-6.324
	c0.239-2.372-1.139-4.558-2.639-6.305l0.211-1.051l-1.608-0.322c-1.387-1.09-3.063-1.752-4.682-2.455
	c-1.229-0.533-2.228-1.275-3.052-2.161l0.204-1.006l-0.128-0.026l0.056-0.628l-0.469-0.042c0.126-2.67-0.02-5.325-0.798-7.558
	c5.69-2.006,10.859-5.855,8.902-12.259c-0.941,0.941-3.06,1.647-4.001,2.825c0-1.648-1.177-3.767-1.412-5.414
	c-0.126,0.025-0.241,0.071-0.364,0.102c0.414-1.595,0.417-3.238-0.106-4.81c-0.706-0.235-1.884,0.471-2.59,0.707
	c0-0.942-0.235-2.589-0.706-3.295c-0.908,0.113-2.311,0.392-3.65,0.729c3.236-4.681,4.46-8.984,0.591-10.145
	c0.235-1.413,0-2.589-0.235-3.767c-4.002,1.883-9.416,3.531-11.77,0c-2.825,1.413-5.414,3.767-7.768,5.649
	c-0.471-0.235-1.178-1.177-1.884-1.647c-1.517,2.493-1.776,5.484-1.212,8.402c-4.128,2.155-7.817,1.018-7.026-5.106
	c-0.471,1.883-2.118,3.766-1.883,6.826c-1.177-0.706-3.061-1.413-4.002-2.119c0,1.063,0.086,2.164,0.276,3.256
	c-1.308-0.009-2.625-0.012-3.961-0.001c-4.068-0.056-8.633,0.07-13.193,0.435c-4.639,0.371-9.24,0.954-13.7,2.33
	c-6.265,1.933-10.893,5.586-12.593,12.229c-0.179,0.704-0.331,1.414-0.466,2.125H9.904v0.029c-0.315,1.668-0.51,3.354-0.548,5.059
	c-0.124,5.645-0.021,11.284,0.548,16.901v67.541h3.365c0,0-0.963-56.378-0.043-54.634c1.716,3.255,4.226,5.673,7.772,6.744
	c4.861,1.47,9.772,1.382,14.587-0.254c3.242-1.102,5.489-3.562,7.666-6.064c1.03-1.185,1.979-2.446,3.269-3.391
	c2.741-2.014,5.719-1.969,8.356,0.193c1.838,1.506,3.179,3.482,4.813,5.183c2.065,2.148,4.408,3.854,7.343,4.563
	c3.913,0.946,7.863,1.044,11.802,0.155c3.779-0.853,6.635-3.008,8.631-6.326c1.349-2.242,2.165-4.686,2.758-7.211
	c0.418-1.78,0.706-3.576,0.915-5.38l0.237,0.553c0.045,3.252,1.271,6.256,2.609,9.239l-0.311,0.854l0.831,0.302
	c0.953,2.114,1.887,4.234,2.409,6.442c0.179,0.749,0.161,1.463,0.066,2.165l-0.418-0.153l-0.648,1.783l0.674,0.245
	c-0.199,0.784-0.4,1.575-0.466,2.399c-0.169,2.154,1.388,3.881,2.817,5.275c0.435,0.423,1.009-0.323,0.579-0.742
	c-2.269-2.21-2.591-3.912-1.988-6.59l0.165,0.061l0.647-1.781l-0.428-0.156c0.246-2.17-0.429-4.245-1.189-6.323
	c-0.329-0.898-0.717-1.787-1.126-2.675l0.504-1.385l-1.388-0.505c-0.94-2.009-1.842-4.039-2.241-6.175
	c-0.156-0.832-0.209-1.684-0.208-2.543l0.895-0.381l-0.745-1.744l-0.048,0.02c0.068-0.813,0.16-1.62,0.243-2.409
	c0.178-1.712,0.456-3.719,0.656-5.801c0.5,0.508,1.052,0.974,1.679,1.373c1.996,1.265,4.277,1.784,6.146,3.26l-0.185,0.922
	l1.474,0.294c1.874,2.116,2.524,4.625,1.914,7.477c-0.314,1.464-0.404,2.85-0.271,4.233l-0.262-0.053l-0.371,1.86l0.996,0.198
	c0.104,0.409,0.229,0.818,0.378,1.235c1.269,3.506,4.589,5.097,7.313,7.19l0.462,1.589l1.033-0.299
	c0.962,0.956,1.745,2.066,2.176,3.494C115.928,80.856,116.845,80.64,116.668,80.058z M43.105,59.792
	c-3.894-0.165-7.759,0.469-11.672,0.141c-5.177-0.434-8.95-2.845-11.586-7.216c-0.726-1.203-0.573-1.909,0.632-2.533
	c3.38-1.748,6.907-2.99,11.201-2.974c2.368-0.11,4.909,0.624,7.14,2.313c3.014,2.281,4.489,5.516,5.439,9.041
	C44.498,59.443,43.886,59.825,43.105,59.792z M91.818,45.642c0.044,0.073,0.082,0.15,0.128,0.222l-0.058,0.649l-0.11,0.554
	C91.795,46.591,91.807,46.117,91.818,45.642z M92.666,44.862l-0.169-0.015c-0.237-0.405-0.453-0.827-0.646-1.266
	c0.013-1.959-0.039-3.916-0.203-5.872c0.063-0.02,0.125-0.039,0.188-0.059C92.604,39.722,92.776,42.239,92.666,44.862z
	 M81.363,52.717c-2.637,4.372-6.408,6.783-11.586,7.216c-3.913,0.328-7.78-0.306-11.671-0.141c-0.78,0.033-1.393-0.349-1.155-1.229
	c0.95-3.525,2.424-6.76,5.439-9.041c2.231-1.689,4.771-2.423,7.139-2.313c4.294-0.016,7.823,1.227,11.202,2.974
	C81.938,50.808,82.088,51.514,81.363,52.717z M91.451,56.106l-0.17,0.072c0.171-1.796,0.277-3.6,0.353-5.408
	c0.051-1.218,0.101-2.437,0.143-3.655l0.72,0.144C92.2,50.433,91.666,53.588,91.451,56.106z"/>
</svg>
