<?xml version="1.0" encoding="utf-8"?>
<!-- Generator: Adobe Illustrator 15.0.0, SVG Export Plug-In . SVG Version: 6.00 Build 0)  -->
<!DOCTYPE svg PUBLIC "-//W3C//DTD SVG 1.1//EN" "http://www.w3.org/Graphics/SVG/1.1/DTD/svg11.dtd">
<svg version="1.1" id="Layer_1" xmlns="http://www.w3.org/2000/svg" xmlns:xlink="http://www.w3.org/1999/xlink" x="0px" y="0px"
	 width="64px" height="64px" viewBox="0 0 64 64" enable-background="new 0 0 64 64" xml:space="preserve">
<g>
	<g>
		<path fill="#231F20" d="M52.059,30.983h-5.544v-7.943h-2.999c-0.243-5.126-4.428-9.125-9.577-9.125
			c-4.153,0-7.853,2.713-9.123,6.641c-1.272-3.928-4.972-6.641-9.125-6.641c-5.145,0-9.333,3.999-9.577,9.125h-3v27.044h43.4v-5.909
			h5.544l8.826,2.737V28.249L52.059,30.983z M14.978,28.255c-2.492,0-4.518-2.027-4.518-4.519s2.026-4.518,4.518-4.518
			s4.518,2.026,4.518,4.518S17.47,28.255,14.978,28.255z M33.856,28.255c-2.494,0-4.52-2.027-4.52-4.519s2.026-4.518,4.52-4.518
			c2.491,0,4.518,2.026,4.518,4.518S36.348,28.255,33.856,28.255z M51.666,43.25h-5.151V31.909h5.151V43.25z"/>
	</g>
</g>
</svg>
