<?xml version="1.0" encoding="UTF-8" standalone="no"?>
<svg width="21px" height="21px" viewBox="0 0 21 21" version="1.1" xmlns="http://www.w3.org/2000/svg" xmlns:xlink="http://www.w3.org/1999/xlink" xmlns:sketch="http://www.bohemiancoding.com/sketch/ns">
    <!-- Generator: Sketch 3.1 (8751) - http://www.bohemiancoding.com/sketch -->
    <title>Close Button</title>
    <desc>Created with Sketch.</desc>
    <defs></defs>
    <g id="Android-App" stroke="none" stroke-width="1" fill="none" fill-rule="evenodd" sketch:type="MSPage">
        <g id="Movie-Detail---Image-Detail" sketch:type="MSArtboardGroup" transform="translate(-324.000000, -40.000000)" fill="#7F7F7F">
            <g id="Overlay" sketch:type="MSLayerGroup" transform="translate(0.000000, 25.000000)">
                <g id="Close-Button" transform="translate(325.000000, 15.000000)" sketch:type="MSShapeGroup">
                    <path d="M0.01,19.898125 C0.131875,20.02 0.291875,20.080625 0.451875,20.080625 C0.611875,20.080625 0.771875,20.019375 0.894375,19.8975 L9.826875,10.954375 L18.759375,19.8975 C18.88125,20.02 19.04125,20.080625 19.201875,20.080625 C19.361875,20.080625 19.521875,20.019375 19.64375,19.898125 C19.888125,19.654375 19.888125,19.25875 19.644375,19.014375 L10.720625,10.080625 L19.64375,1.1475 C19.8875,0.903125 19.8875,0.5075 19.643125,0.26375 C19.398125,0.019375 19.003125,0.019375 18.759375,0.264375 L9.82625,9.2075 L0.89375,0.264375 C0.649375,0.02 0.25375,0.02 0.01,0.26375 C-0.234375,0.5075 -0.234375,0.903125 0.009375,1.1475 L8.931875,10.080625 L0.009375,19.014375 C-0.234375,19.258125 -0.234375,19.654375 0.01,19.898125 L0.01,19.898125 Z" id="Shape"></path>
                </g>
            </g>
        </g>
    </g>
</svg>