<?xml version="1.0" encoding="UTF-8" standalone="no"?>
<svg width="34px" height="21px" viewBox="0 0 34 21" version="1.1" xmlns="http://www.w3.org/2000/svg" xmlns:xlink="http://www.w3.org/1999/xlink" xmlns:sketch="http://www.bohemiancoding.com/sketch/ns">
    <!-- Generator: Sketch 3.2.2 (9983) - http://www.bohemiancoding.com/sketch -->
    <title>details-actors</title>
    <desc>Created with Sketch.</desc>
    <defs></defs>
    <g id="Desktop-[Web]" stroke="none" stroke-width="1" fill="none" fill-rule="evenodd" sketch:type="MSPage">
        <g id="Movie-Detail-3" sketch:type="MSArtboardGroup" transform="translate(-711.000000, -692.000000)" fill="#FFFFFF">
            <g id="Group" sketch:type="MSLayerGroup" transform="translate(546.000000, 690.000000)">
                <g id="details-actors-+-Trailer-2" transform="translate(165.000000, 2.000000)" sketch:type="MSShapeGroup">
                    <g id="details-actors">
                        <path d="M12.7968842,7.46803448 C11.8384421,7.46803448 11.0249474,8.08862069 10.7221684,8.95396552 C10.6409263,8.7207931 10.5944,8.47205172 10.5944,8.211 C10.5944,6.98068966 11.5804,5.98282759 12.7968842,5.98282759 C13.6318526,5.98282759 14.3583789,6.45315517 14.7320211,7.14615517 C14.8329474,5.32277586 15.1013684,3.72967241 15.3751579,2.50660345 L0.476357895,2.50660345 C0.350021053,2.50660345 0.229052632,2.55765517 0.139578947,2.64781034 C0.0501052632,2.73832759 0,2.86106897 0,2.98851724 C0,3.10148276 0.101284211,14.3886207 8.84608421,20.8819655 C8.92983158,20.9442414 9.02896842,20.9753793 9.12810526,20.9753793 C9.22688421,20.9753793 9.32602105,20.9442414 9.40976842,20.8819655 C12.0832421,18.8971034 13.9493053,16.4096897 15.2516842,13.9269828 C14.8376,12.0536379 14.6851368,10.2364138 14.6901474,8.56474138 C14.3072,7.90939655 13.6042947,7.46803448 12.7968842,7.46803448 L12.7968842,7.46803448 Z M3.59684211,8.95396552 C3.51524211,8.7207931 3.46871579,8.47205172 3.46871579,8.211 C3.46871579,6.98068966 4.45507368,5.98282759 5.67155789,5.98282759 C6.88768421,5.98282759 7.87404211,6.98068966 7.87404211,8.211 C7.87404211,8.47205172 7.82751579,8.7207931 7.74591579,8.95396552 C7.44313684,8.08862069 6.63,7.46803448 5.67155789,7.46803448 C4.71311579,7.46803448 3.89962105,8.08862069 3.59684211,8.95396552 L3.59684211,8.95396552 Z M8.89368421,16.469431 C7.11423158,16.469431 5.67191579,15.471569 5.67191579,14.2412586 C5.67191579,13.9802069 5.73991579,13.7314655 5.85909474,13.4982931 C6.30216842,14.3632759 7.49181053,14.9838621 8.89368421,14.9838621 C10.2955579,14.9838621 11.4859158,14.3632759 11.9286316,13.4982931 C12.0478105,13.7314655 12.1158105,13.9802069 12.1158105,14.2412586 C12.1158105,15.471569 10.6731368,16.469431 8.89368421,16.469431 L8.89368421,16.469431 Z M33.7351579,6.83912069 C33.6850526,6.71963793 33.5898526,6.62622414 33.4710316,6.5787931 L17.3614737,0.189724138 C17.2433684,0.143017241 17.1123789,0.145913793 16.9964211,0.196965517 C16.8808211,0.24837931 16.7895579,0.343603448 16.7433895,0.462724138 C16.7025895,0.568086207 12.7245895,11.114069 18.5239158,20.3877414 C18.5790316,20.4768103 18.6602737,20.5423448 18.7526105,20.5781897 C18.8449474,20.6154828 18.9476632,20.6227241 19.0489474,20.595569 C29.2711368,17.85 33.6932842,7.31813793 33.7365895,7.21205172 C33.7852632,7.09256897 33.7845474,6.95824138 33.7351579,6.83912069 L33.7351579,6.83912069 Z M18.6248421,5.22284483 C18.7189684,4.97989655 18.8524632,4.76518966 19.0120842,4.57836207 C18.9820211,5.49548276 19.5152842,6.37386207 20.4075158,6.72796552 C21.2993895,7.08206897 22.2807368,6.804 22.8748421,6.11063793 C22.8669684,6.35793103 22.8200842,6.60667241 22.7259579,6.84998276 C22.2818105,7.99556897 21.0037684,8.56003448 19.8706737,8.1107069 C18.7390105,7.66174138 18.1806947,6.3687931 18.6248421,5.22284483 L18.6248421,5.22284483 Z M17.9745474,13.5688966 C18.4344421,12.4298276 20.1433895,12.059069 21.7904211,12.7401207 C23.4381684,13.4211724 24.3998316,14.8969655 23.9399368,16.0363966 C23.8425895,16.2775345 23.6861895,16.4817414 23.4886316,16.6522759 C23.4023789,15.681931 22.5330526,14.652569 21.2349684,14.1148966 C19.9372421,13.5790345 18.6033684,13.8788276 17.8704,14.5099138 C17.8467789,14.2485 17.8764842,13.8107586 17.9745474,13.5688966 L17.9745474,13.5688966 Z M29.3598947,9.48077586 C28.9161053,10.6263621 27.6377053,11.1911897 26.5049684,10.7418621 C25.3725895,10.2925345 24.8142737,8.99958621 25.2587789,7.85363793 C25.3529053,7.61068966 25.4860421,7.39598276 25.6460211,7.20951724 C25.6159579,8.12627586 26.1492211,9.00465517 27.0410947,9.35875862 C27.9336842,9.71286207 28.9146737,9.43515517 29.5091368,8.74143103 C29.5005474,8.98872414 29.4543789,9.23746552 29.3598947,9.48077586 L29.3598947,9.48077586 Z" id="Shape"></path>
                    </g>
                </g>
            </g>
        </g>
    </g>
</svg>