<?xml version="1.0" encoding="UTF-8" standalone="no"?>
<svg width="25px" height="25px" viewBox="0 0 25 25" version="1.1" xmlns="http://www.w3.org/2000/svg" xmlns:xlink="http://www.w3.org/1999/xlink" xmlns:sketch="http://www.bohemiancoding.com/sketch/ns">
    <!-- Generator: Sketch 3.2.2 (9983) - http://www.bohemiancoding.com/sketch -->
    <title>details-info</title>
    <desc>Created with Sketch.</desc>
    <defs></defs>
    <g id="Desktop-[Web]" stroke="none" stroke-width="1" fill="none" fill-rule="evenodd" sketch:type="MSPage">
        <g id="Movie-Detail-3" sketch:type="MSArtboardGroup" transform="translate(-796.000000, -690.000000)" fill="#FFFFFF">
            <g id="Group" sketch:type="MSLayerGroup" transform="translate(546.000000, 690.000000)">
                <g id="details-info-+-Actors-2" transform="translate(250.000000, 0.000000)" sketch:type="MSShapeGroup">
                    <g id="details-info">
                        <path d="M12.3041667,0 C5.509375,0 0,5.509375 0,12.3041667 C0,19.0989583 5.509375,24.609375 12.3041667,24.609375 C19.0989583,24.609375 24.609375,19.0989583 24.609375,12.3041667 C24.609375,5.509375 19.0989583,0 12.3041667,0 L12.3041667,0 Z M14.865625,19.0697917 C14.2322917,19.3197917 13.728125,19.509375 13.35,19.640625 C12.9729167,19.771875 12.534375,19.8375 12.0354167,19.8375 C11.26875,19.8375 10.671875,19.65 10.246875,19.2760417 C9.821875,18.9020833 9.61041667,18.428125 9.61041667,17.8520833 C9.61041667,17.628125 9.62604167,17.3989583 9.65729167,17.165625 C9.68958333,16.9322917 9.740625,16.6697917 9.81041667,16.375 L10.603125,13.575 C10.6729167,13.30625 10.7333333,13.0510417 10.78125,12.8135417 C10.8291667,12.5739583 10.8520833,12.3541667 10.8520833,12.1541667 C10.8520833,11.7979167 10.778125,11.5479167 10.63125,11.4072917 C10.4822917,11.2666667 10.2020833,11.1979167 9.784375,11.1979167 C9.58020833,11.1979167 9.36979167,11.228125 9.15416667,11.2916667 C8.940625,11.3572917 8.75520833,11.4166667 8.603125,11.475 L8.8125,10.6125 C9.33125,10.4010417 9.828125,10.2197917 10.3020833,10.0697917 C10.7760417,9.91770833 11.2239583,9.84270833 11.6458333,9.84270833 C12.4072917,9.84270833 12.9947917,10.028125 13.4083333,10.3947917 C13.8197917,10.7625 14.0270833,11.240625 14.0270833,11.828125 C14.0270833,11.95 14.0125,12.1645833 13.984375,12.4708333 C13.95625,12.778125 13.903125,13.0583333 13.8260417,13.315625 L13.0375,16.1072917 C12.9729167,16.33125 12.915625,16.5875 12.8635417,16.8739583 C12.8125,17.1604167 12.7875,17.3791667 12.7875,17.5260417 C12.7875,17.896875 12.8697917,18.15 13.0364583,18.284375 C13.2010417,18.41875 13.4895833,18.4864583 13.8979167,18.4864583 C14.090625,18.4864583 14.30625,18.4520833 14.55,18.3854167 C14.7916667,18.31875 14.9666667,18.259375 15.0770833,18.2083333 L14.865625,19.0697917 L14.865625,19.0697917 Z M14.7260417,7.73854167 C14.3583333,8.08020833 13.915625,8.25104167 13.3979167,8.25104167 C12.88125,8.25104167 12.4354167,8.08020833 12.0645833,7.73854167 C11.6958333,7.396875 11.509375,6.98125 11.509375,6.49583333 C11.509375,6.01145833 11.696875,5.59479167 12.0645833,5.25 C12.4354167,4.90416667 12.88125,4.73229167 13.3979167,4.73229167 C13.915625,4.73229167 14.359375,4.90416667 14.7260417,5.25 C15.09375,5.59479167 15.278125,6.01145833 15.278125,6.49583333 C15.278125,6.98229167 15.09375,7.396875 14.7260417,7.73854167 L14.7260417,7.73854167 Z" id="Shape"></path>
                    </g>
                </g>
            </g>
        </g>
    </g>
</svg>