<?xml version="1.0" encoding="UTF-8" standalone="no"?>
<svg width="68px" height="68px" viewBox="0 0 68 68" version="1.1" xmlns="http://www.w3.org/2000/svg" xmlns:xlink="http://www.w3.org/1999/xlink" xmlns:sketch="http://www.bohemiancoding.com/sketch/ns">
    <!-- Generator: Sketch 3.1 (8751) - http://www.bohemiancoding.com/sketch -->
    <title>Loading Indicator</title>
    <desc>Created with Sketch.</desc>
    <defs></defs>
    <g id="Android-App" stroke="none" stroke-width="1" fill="none" fill-rule="evenodd" sketch:type="MSPage">
        <g id="Movie-List---Loading" sketch:type="MSArtboardGroup" transform="translate(-146.000000, -286.000000)" fill="#D8D8D8">
            <g id="Loading-Indicator" sketch:type="MSLayerGroup" transform="translate(146.000000, 286.000000)">
                <path d="M34,68 C52.7776815,68 68,52.7776815 68,34 C68,15.2223185 52.7776815,0 34,0 C15.2223185,0 0,15.2223185 0,34 C0,52.7776815 15.2223185,68 34,68 Z M15.9624413,37.6713615 C21.2519291,37.6713615 25.5399061,33.3833845 25.5399061,28.0938967 C25.5399061,22.804409 21.2519291,18.5164319 15.9624413,18.5164319 C10.6729536,18.5164319 6.38497653,22.804409 6.38497653,28.0938967 C6.38497653,33.3833845 10.6729536,37.6713615 15.9624413,37.6713615 Z M33.6807512,37.6713615 C35.8847044,37.6713615 37.6713615,35.8847044 37.6713615,33.6807512 C37.6713615,31.4767979 35.8847044,29.6901408 33.6807512,29.6901408 C31.4767979,29.6901408 29.6901408,31.4767979 29.6901408,33.6807512 C29.6901408,35.8847044 31.4767979,37.6713615 33.6807512,37.6713615 Z M30.0093897,29.6901408 C30.7146547,29.6901408 31.286385,29.1184106 31.286385,28.4131455 C31.286385,27.7078805 30.7146547,27.1361502 30.0093897,27.1361502 C29.3041246,27.1361502 28.7323944,27.7078805 28.7323944,28.4131455 C28.7323944,29.1184106 29.3041246,29.6901408 30.0093897,29.6901408 Z M37.6713615,29.6901408 C38.3766265,29.6901408 38.9483568,29.1184106 38.9483568,28.4131455 C38.9483568,27.7078805 38.3766265,27.1361502 37.6713615,27.1361502 C36.9660965,27.1361502 36.3943662,27.7078805 36.3943662,28.4131455 C36.3943662,29.1184106 36.9660965,29.6901408 37.6713615,29.6901408 Z M39.9061033,37.0328638 C40.6113683,37.0328638 41.1830986,36.4611336 41.1830986,35.7558685 C41.1830986,35.0506035 40.6113683,34.4788732 39.9061033,34.4788732 C39.2008383,34.4788732 38.629108,35.0506035 38.629108,35.7558685 C38.629108,36.4611336 39.2008383,37.0328638 39.9061033,37.0328638 Z M33.8403756,41.5023474 C34.5456406,41.5023474 35.1173709,40.9306171 35.1173709,40.2253521 C35.1173709,39.5200871 34.5456406,38.9483568 33.8403756,38.9483568 C33.1351106,38.9483568 32.5633803,39.5200871 32.5633803,40.2253521 C32.5633803,40.9306171 33.1351106,41.5023474 33.8403756,41.5023474 Z M27.4553991,37.3521127 C28.1606641,37.3521127 28.7323944,36.7803824 28.7323944,36.0751174 C28.7323944,35.3698523 28.1606641,34.7981221 27.4553991,34.7981221 C26.750134,34.7981221 26.1784038,35.3698523 26.1784038,36.0751174 C26.1784038,36.7803824 26.750134,37.3521127 27.4553991,37.3521127 Z M33.8403756,25.2206573 C39.1298633,25.2206573 43.4178404,20.9326802 43.4178404,15.6431925 C43.4178404,10.3537047 39.1298633,6.0657277 33.8403756,6.0657277 C28.5508878,6.0657277 24.2629108,10.3537047 24.2629108,15.6431925 C24.2629108,20.9326802 28.5508878,25.2206573 33.8403756,25.2206573 Z M51.399061,37.9906103 C56.6885488,37.9906103 60.9765258,33.7026333 60.9765258,28.4131455 C60.9765258,23.1236578 56.6885488,18.8356808 51.399061,18.8356808 C46.1095733,18.8356808 41.8215962,23.1236578 41.8215962,28.4131455 C41.8215962,33.7026333 46.1095733,37.9906103 51.399061,37.9906103 Z M22.9859155,58.4225352 C28.2754032,58.4225352 32.5633803,54.1345582 32.5633803,48.8450704 C32.5633803,43.5555827 28.2754032,39.2676056 22.9859155,39.2676056 C17.6964277,39.2676056 13.4084507,43.5555827 13.4084507,48.8450704 C13.4084507,54.1345582 17.6964277,58.4225352 22.9859155,58.4225352 Z M44.6948357,58.741784 C49.9843234,58.741784 54.2723005,54.453807 54.2723005,49.1643192 C54.2723005,43.8748315 49.9843234,39.5868545 44.6948357,39.5868545 C39.4053479,39.5868545 35.1173709,43.8748315 35.1173709,49.1643192 C35.1173709,54.453807 39.4053479,58.741784 44.6948357,58.741784 Z" id="Oval-21" sketch:type="MSShapeGroup"></path>
            </g>
        </g>
    </g>
</svg>