<?xml version="1.0" encoding="UTF-8" standalone="no"?>
<svg width="20px" height="14px" viewBox="0 0 20 14" version="1.1" xmlns="http://www.w3.org/2000/svg" xmlns:xlink="http://www.w3.org/1999/xlink" xmlns:sketch="http://www.bohemiancoding.com/sketch/ns">
    <!-- Generator: Sketch 3.2.1 (9971) - http://www.bohemiancoding.com/sketch -->
    <title>Rectangle 4</title>
    <desc>Created with Sketch.</desc>
    <defs></defs>
    <g id="Desktop-[Web]" stroke="none" stroke-width="1" fill="none" fill-rule="evenodd" sketch:type="MSPage">
        <g id="Start-Page" sketch:type="MSArtboardGroup" transform="translate(-109.000000, -23.000000)" fill="#FFFFFF">
            <g id="Logo" sketch:type="MSLayerGroup" transform="translate(100.000000, 12.000000)">
                <path d="M9.72821708,16.8340351 C9.59704285,16.8340351 9.49070513,16.9402625 9.49070513,17.0712076 L9.49070513,24.7048031 C9.49070513,24.8357898 9.59679606,24.9419755 9.72821708,24.9419755 L22.3734019,24.9419755 C22.5045761,24.9419755 22.6109139,24.8357482 22.6109139,24.7048031 L22.6109139,17.0712076 C22.6109139,16.9402208 22.5048229,16.8340351 22.3734019,16.8340351 L9.72821708,16.8340351 L9.72821708,16.8340351 Z M23.1955151,18.5149108 C23.0706294,18.554518 22.9693895,18.6930836 22.9693895,18.8241075 L22.9693895,23.0009523 C22.9693895,23.1321096 23.0709035,23.2703816 23.1959434,23.3097334 L28.1558179,24.8706758 C28.2809401,24.9100535 28.3823718,24.8358451 28.3823718,24.7047655 L28.3823718,17.107121 C28.3823718,16.9761135 28.2811537,16.9020121 28.1562462,16.9416262 L23.1955151,18.5149108 L23.1955151,18.5149108 Z M13.1650805,16.4752767 C14.6598343,16.4752767 15.8715717,15.2625835 15.8715717,13.7666506 C15.8715717,12.2707177 14.6598343,11.0580245 13.1650805,11.0580245 C11.6703267,11.0580245 10.4585894,12.2707177 10.4585894,13.7666506 C10.4585894,15.2625835 11.6703267,16.4752767 13.1650805,16.4752767 L13.1650805,16.4752767 Z M18.9365385,16.4752767 C20.4312922,16.4752767 21.6430296,15.2625835 21.6430296,13.7666506 C21.6430296,12.2707177 20.4312922,11.0580245 18.9365385,11.0580245 C17.4417847,11.0580245 16.2300473,12.2707177 16.2300473,13.7666506 C16.2300473,15.2625835 17.4417847,16.4752767 18.9365385,16.4752767 L18.9365385,16.4752767 Z" id="Rectangle-4" sketch:type="MSShapeGroup"></path>
            </g>
        </g>
    </g>
</svg>