<?xml version="1.0" encoding="utf-8"?>
<!-- Generator: Adobe Illustrator 17.0.0, SVG Export Plug-In . SVG Version: 6.00 Build 0)  -->
<!DOCTYPE svg PUBLIC "-//W3C//DTD SVG 1.1//EN" "http://www.w3.org/Graphics/SVG/1.1/DTD/svg11.dtd">
<svg version="1.1" id="Layer_1" xmlns:sketch="http://www.bohemiancoding.com/sketch/ns"
	 xmlns="http://www.w3.org/2000/svg" xmlns:xlink="http://www.w3.org/1999/xlink" x="0px" y="0px" width="796px" height="585px"
	 viewBox="0 0.5 796 585" enable-background="new 0 0.5 796 585" xml:space="preserve">
<g id="Logo" sketch:type="MSPage">
	<g id="_x31_024" transform="translate(-114.000000, -129.000000)" sketch:type="MSArtboardGroup">
		<path id="Rectangle-1" sketch:type="MSShapeGroup" fill="#50E3C2" d="M124.008,372.872c-5.527,0-10.008,4.476-10.008,9.993
			v321.641c0,5.519,4.47,9.993,10.008,9.993h532.805c5.527,0,10.008-4.476,10.008-9.993V382.865c0-5.519-4.47-9.993-10.008-9.993
			H124.008z M691.452,443.696c-5.262,1.669-9.528,7.507-9.528,13.028v175.991c0,5.526,4.277,11.352,9.546,13.01l208.984,65.77
			c5.272,1.659,9.546-1.468,9.546-6.991V384.379c0-5.52-4.265-8.642-9.528-6.973L691.452,443.696z M268.82,357.756
			c62.981,0,114.038-51.097,114.038-114.128S331.801,129.5,268.82,129.5s-114.038,51.097-114.038,114.128
			S205.838,357.756,268.82,357.756z M512,357.756c62.981,0,114.038-51.097,114.038-114.128S574.981,129.5,512,129.5
			s-114.038,51.097-114.038,114.128S449.019,357.756,512,357.756z"/>
	</g>
</g>
</svg>
