<?xml version="1.0" encoding="UTF-8" standalone="no"?>
<svg width="39px" height="30px" viewBox="0 0 39 30" version="1.1" xmlns="http://www.w3.org/2000/svg" xmlns:xlink="http://www.w3.org/1999/xlink" xmlns:sketch="http://www.bohemiancoding.com/sketch/ns">
    <!-- Generator: Sketch 3.1 (8751) - http://www.bohemiancoding.com/sketch -->
    <title>Rectangle 2</title>
    <desc>Created with Sketch.</desc>
    <defs></defs>
    <g id="Android-App" stroke="none" stroke-width="1" fill="none" fill-rule="evenodd" sketch:type="MSPage">
        <g id="Movie-List" sketch:type="MSArtboardGroup" transform="translate(-9.000000, -35.000000)" fill="#FFFFFF">
            <g id="Header" sketch:type="MSLayerGroup" transform="translate(0.000000, 25.000000)">
                <path d="M13.1861235,22.28125 L13.1861235,33.21875 C13.1861235,33.8362936 13.3559309,34 13.9639012,34 L33.4083457,34 C34.015921,34 34.1861235,33.8362295 34.1861235,33.21875 L34.1861235,22.28125 C34.1861235,21.6637064 34.016316,21.5 33.4083457,21.5 L13.9639012,21.5 C13.3563259,21.5 13.1861235,21.6637705 13.1861235,22.28125 Z M35.9606065,23.7868091 C35.3368486,23.9968337 35.1752795,24.2158334 35.1752795,24.5721361 L35.1752795,30.8547521 C35.1752795,31.2316138 35.3372861,31.4501495 35.9606065,31.6400791 L43.0285495,33.9960602 C43.6520014,34.041614 43.8138765,33.9243292 43.8138765,33.9960602 L43.8138765,21.4308281 C43.8138765,21.502201 43.6523422,21.3850853 43.0285495,21.4308281 L35.9606065,23.7868091 L35.9606065,23.7868091 Z M19.4687395,20.6455011 C21.4615587,20.6455011 23.3953745,18.7116853 23.3953745,16.7188661 C23.3953745,13.9407199 21.4615587,12.0069041 19.4687395,12.0069041 C16.6905933,12.0069041 14.7567775,13.9407199 14.7567775,16.7188661 C14.7567775,18.7116853 16.6905933,20.6455011 19.4687395,20.6455011 L19.4687395,20.6455011 Z M28.8926635,20.6455011 C30.8854827,20.6455011 32.8192985,18.7116853 32.8192985,16.7188661 C32.8192985,13.9407199 30.8854827,12.0069041 28.8926635,12.0069041 C26.1145173,12.0069041 24.1807015,13.9407199 24.1807015,16.7188661 C24.1807015,18.7116853 26.1145173,20.6455011 28.8926635,20.6455011 L28.8926635,20.6455011 Z" id="Rectangle-2" sketch:type="MSShapeGroup"></path>
            </g>
        </g>
    </g>
</svg>