<?xml version="1.0" encoding="UTF-8" standalone="no"?>
<svg width="44px" height="34px" viewBox="0 0 44 34" version="1.1" xmlns="http://www.w3.org/2000/svg" xmlns:xlink="http://www.w3.org/1999/xlink" xmlns:sketch="http://www.bohemiancoding.com/sketch/ns">
    <!-- Generator: Sketch 3.2.1 (9971) - http://www.bohemiancoding.com/sketch -->
    <title>Rectangle 1</title>
    <desc>Created with Sketch.</desc>
    <defs></defs>
    <g id="Desktop-[Web]" stroke="none" stroke-width="1" fill="none" fill-rule="evenodd" sketch:type="MSPage">
        <g id="Initial-Loading" sketch:type="MSArtboardGroup" transform="translate(-662.000000, -342.000000)" stroke="#BBBBBB">
            <path d="M663.658682,357.323785 C663.392926,357.323785 663.177488,357.538999 663.177488,357.804291 L663.177488,373.269786 C663.177488,373.535162 663.392426,373.750292 663.658682,373.750292 L689.277546,373.750292 C689.543302,373.750292 689.75874,373.535078 689.75874,373.269786 L689.75874,357.804291 C689.75874,357.538915 689.543802,357.323785 689.277546,357.323785 L663.658682,357.323785 L663.658682,357.323785 Z M693.64025,360.165507 C693.35757,360.255159 693.128412,360.568804 693.128412,360.865378 L693.128412,370.319722 C693.128412,370.616598 693.35819,370.929579 693.64122,371.018652 L704.867961,374.551866 C705.151177,374.640998 705.380769,374.473026 705.380769,374.176326 L705.380769,356.978956 C705.380769,356.682419 705.151661,356.51469 704.868931,356.604357 L693.64025,360.165507 L693.64025,360.165507 Z M668.936228,354.548769 C672.043699,354.548769 674.562801,352.027679 674.562801,348.917757 C674.562801,345.807836 672.043699,343.286746 668.936228,343.286746 C665.828758,343.286746 663.309656,345.807836 663.309656,348.917757 C663.309656,352.027679 665.828758,354.548769 668.936228,354.548769 L668.936228,354.548769 Z M683.632562,354.548769 C686.740032,354.548769 689.259134,352.027679 689.259134,348.917757 C689.259134,345.807836 686.740032,343.286746 683.632562,343.286746 C680.525091,343.286746 678.005989,345.807836 678.005989,348.917757 C678.005989,352.027679 680.525091,354.548769 683.632562,354.548769 L683.632562,354.548769 Z" id="Rectangle-1" sketch:type="MSShapeGroup"></path>
        </g>
    </g>
</svg>