<?xml version="1.0" encoding="UTF-8" standalone="no"?>
<svg width="20px" height="20px" viewBox="0 0 20 20" version="1.1" xmlns="http://www.w3.org/2000/svg" xmlns:xlink="http://www.w3.org/1999/xlink" xmlns:sketch="http://www.bohemiancoding.com/sketch/ns">
    <!-- Generator: Sketch 3.2.1 (9977) - http://www.bohemiancoding.com/sketch -->
    <title>Shape</title>
    <desc>Created with Sketch.</desc>
    <defs></defs>
    <g id="Android-App" stroke="none" stroke-width="1" fill="none" fill-rule="evenodd" sketch:type="MSPage">
        <g id="Movie-Detail---Info" sketch:type="MSArtboardGroup" transform="translate(-38.000000, -342.000000)" fill="#000000">
            <g id="Tagline" sketch:type="MSLayerGroup" transform="translate(18.000000, 342.000000)">
                <g id="sms-2" transform="translate(20.000000, 0.000000)" sketch:type="MSShapeGroup">
                    <path d="M18,0 L2,0 C0.9,0 0,0.9 0,2 L0,20 L4,16 L18,16 C19.1,16 20,15.1 20,14 L20,2 C20,0.9 19.1,0 18,0 L18,0 Z M7,9 L5,9 L5,7 L7,7 L7,9 L7,9 Z M11,9 L9,9 L9,7 L11,7 L11,9 L11,9 Z M15,9 L13,9 L13,7 L15,7 L15,9 L15,9 Z" id="Shape"></path>
                </g>
            </g>
        </g>
    </g>
</svg>