<?xml version="1.0" encoding="UTF-8" standalone="no"?>
<svg width="52px" height="52px" viewBox="0 0 52 52" version="1.1" xmlns="http://www.w3.org/2000/svg" xmlns:xlink="http://www.w3.org/1999/xlink" xmlns:sketch="http://www.bohemiancoding.com/sketch/ns">
    <!-- Generator: Sketch 3.1 (8751) - http://www.bohemiancoding.com/sketch -->
    <title>frown1</title>
    <desc>Created with Sketch.</desc>
    <defs></defs>
    <g id="Android-App" stroke="none" stroke-width="1" fill="none" fill-rule="evenodd" sketch:type="MSPage">
        <g id="Connection-Problem" sketch:type="MSArtboardGroup" transform="translate(-154.000000, -294.000000)" fill="#D8D8D8">
            <g id="frown1" sketch:type="MSLayerGroup" transform="translate(155.000000, 295.000000)">
                <path d="M25,-0.140625 C11.1375,-0.140625 -0.140625,11.1375 -0.140625,25 C-0.140625,38.8625 11.1375,50.140625 25,50.140625 C38.8625,50.140625 50.140625,38.8625 50.140625,25 C50.140625,11.1375 38.8625,-0.140625 25,-0.140625 L25,-0.140625 Z M25,47.640625 C12.515625,47.640625 2.359375,37.484375 2.359375,25 C2.359375,12.515625 12.515625,2.359375 25,2.359375 C37.484375,2.359375 47.640625,12.515625 47.640625,25 C47.640625,37.484375 37.484375,47.640625 25,47.640625 L25,47.640625 Z M34.116875,38.751875 L32.404375,39.515 C31.1125,36.6125 28.226875,34.7375 25.055,34.7375 C21.78375,34.7375 18.86375,36.69375 17.61625,39.720625 L15.883125,39.00625 C17.420625,35.27375 21.02125,32.8625 25.055625,32.8625 C28.966875,32.8625 32.52375,35.174375 34.116875,38.751875 L34.116875,38.751875 Z M16.874375,21.355625 C14.685625,21.355625 12.910625,19.580625 12.910625,17.39125 C12.910625,15.201875 14.685625,13.426875 16.874375,13.426875 C19.064375,13.426875 20.839375,15.201875 20.839375,17.39125 C20.839375,19.580625 19.064375,21.355625 16.874375,21.355625 L16.874375,21.355625 Z M37.094375,17.39125 C37.094375,19.580625 35.319375,21.355625 33.129375,21.355625 C30.940625,21.355625 29.165625,19.580625 29.165625,17.39125 C29.165625,15.201875 30.940625,13.426875 33.129375,13.426875 C35.319375,13.426875 37.094375,15.201875 37.094375,17.39125 L37.094375,17.39125 Z" id="Shape" sketch:type="MSShapeGroup"></path>
            </g>
        </g>
    </g>
</svg>