<?xml version="1.0" encoding="UTF-8" standalone="no"?>
<svg width="17px" height="17px" viewBox="0 0 17 17" version="1.1" xmlns="http://www.w3.org/2000/svg" xmlns:xlink="http://www.w3.org/1999/xlink" xmlns:sketch="http://www.bohemiancoding.com/sketch/ns">
    <!-- Generator: Sketch 3.2.1 (9977) - http://www.bohemiancoding.com/sketch -->
    <title>Search</title>
    <desc>Created with Sketch.</desc>
    <defs></defs>
    <g id="Android-App" stroke="none" stroke-width="1" fill="none" fill-rule="evenodd" sketch:type="MSPage">
        <g id="Movie-List" sketch:type="MSArtboardGroup" transform="translate(-322.000000, -45.000000)" fill-opacity="0.5" fill="#000000">
            <g id="Nav-Bar" sketch:type="MSLayerGroup" transform="translate(0.000000, 25.000000)">
                <g id="Action-Icons" transform="translate(322.000000, 20.000000)" sketch:type="MSShapeGroup">
                    <path d="M6.81887242,10.4350678 C4.54570336,10.4350678 2.7024697,8.5918341 2.7024697,6.31866504 C2.7024697,4.04549598 4.54570336,2.20226232 6.81887242,2.20226232 C9.09295623,2.20226232 10.9352751,4.04549598 10.9352751,6.31866504 C10.9352751,8.5918341 9.09295623,10.4350678 6.81887242,10.4350678 M6.81887242,0.37275 C3.5348978,0.37275 0.872957378,3.03469043 0.872957378,6.31866504 C0.872957378,9.60263966 3.5348978,12.2645801 6.81887242,12.2645801 C8.29528886,12.2645801 9.6445542,11.7230444 10.6837172,10.8311572 L10.9361899,11.0827151 L10.9361899,11.807202 L15.5081412,16.37275 L16.8720426,15.0088486 L12.3092389,10.4350678 L11.5829225,10.4350678 L11.3304498,10.1844246 C12.2232518,9.14434682 12.7647875,7.79599624 12.7647875,6.31866504 C12.7647875,3.03469043 10.102847,0.37275 6.81887242,0.37275" id="Search"></path>
                </g>
            </g>
        </g>
    </g>
</svg>