<?xml version="1.0" encoding="UTF-8" standalone="no"?>
<svg width="28px" height="28px" viewBox="0 0 28 28" version="1.1" xmlns="http://www.w3.org/2000/svg" xmlns:xlink="http://www.w3.org/1999/xlink" xmlns:sketch="http://www.bohemiancoding.com/sketch/ns">
    <!-- Generator: Sketch 3.1 (8751) - http://www.bohemiancoding.com/sketch -->
    <title>Zoom</title>
    <desc>Created with Sketch.</desc>
    <defs></defs>
    <g id="Android-App" stroke="none" stroke-width="1" fill="none" fill-rule="evenodd" sketch:type="MSPage">
        <g id="Movie-List" sketch:type="MSArtboardGroup" transform="translate(-321.000000, -39.000000)" fill="#FFFFFF">
            <g id="Header" sketch:type="MSLayerGroup" transform="translate(0.000000, 25.000000)">
                <path d="M344.76159,32.8749232 L340.991352,29.1033292 C340.659705,28.7722918 340.059021,28.8035978 339.457097,29.1172774 L337.81188,27.4729393 C339.954878,24.6727601 339.75279,20.653198 337.191049,18.0910681 C334.401805,15.3029773 329.880558,15.3029773 327.091003,18.0910681 C324.302999,20.8807086 324.302999,25.402406 327.091003,28.1917366 C329.653674,30.7535566 333.673112,30.9556505 336.472894,28.8119667 L338.117801,30.4559949 C337.804131,31.0591772 337.772206,31.6592599 338.103234,31.9909171 L341.874091,35.7625112 C342.350485,36.2382999 343.38479,35.9766936 344.180432,35.1788564 C344.977005,34.3831889 345.238603,33.3507119 344.76159,32.8749232 L344.76159,32.8749232 Z M328.153204,27.1301234 C325.951315,24.9263074 325.951315,21.3549475 328.153204,19.1529912 C330.356642,16.9494852 333.925101,16.951035 336.129779,19.1529912 C338.331667,21.3549475 338.331667,24.9250675 336.129779,27.1301234 C333.925101,29.3320797 330.354782,29.3320797 328.153204,27.1301234 L328.153204,27.1301234 Z" id="Zoom" sketch:type="MSShapeGroup"></path>
            </g>
        </g>
    </g>
</svg>