<?xml version="1.0" encoding="utf-8"?>
<!-- Generator: Adobe Illustrator 17.0.0, SVG Export Plug-In . SVG Version: 6.00 Build 0)  -->
<!DOCTYPE svg PUBLIC "-//W3C//DTD SVG 1.1//EN" "http://www.w3.org/Graphics/SVG/1.1/DTD/svg11.dtd">
<svg version="1.1" id="Layer_1" xmlns:sketch="http://www.bohemiancoding.com/sketch/ns"
	 xmlns="http://www.w3.org/2000/svg" xmlns:xlink="http://www.w3.org/1999/xlink" x="0px" y="0px" width="20px" height="20px"
	 viewBox="4 2 20 20" enable-background="new 4 2 20 20" xml:space="preserve">
<title>Zoom</title>
<desc>Created with Sketch.</desc>
<g id="Android-App" sketch:type="MSPage">
	<g id="Movie-List" transform="translate(-321.000000, -39.000000)" sketch:type="MSArtboardGroup">
		<g id="Header" transform="translate(0.000000, 25.000000)" sketch:type="MSLayerGroup">
			<path id="Zoom" sketch:type="MSShapeGroup" fill="#FFFFFF" d="M344.762,32.875l-3.77-3.772c-0.332-0.331-0.932-0.3-1.534,0.014
				l-1.645-1.644c2.143-2.8,1.941-6.82-0.621-9.382c-2.789-2.788-7.31-2.788-10.1,0c-2.788,2.79-2.788,7.311,0,10.101
				c2.563,2.562,6.582,2.764,9.382,0.62l1.645,1.644c-0.314,0.603-0.346,1.203-0.015,1.535l3.771,3.772
				c0.476,0.476,1.511,0.214,2.306-0.584C344.977,34.383,345.239,33.351,344.762,32.875L344.762,32.875z M328.153,27.13
				c-2.202-2.204-2.202-5.775,0-7.977c2.203-2.204,5.772-2.202,7.977,0c2.202,2.202,2.202,5.772,0,7.977
				C333.925,29.332,330.355,29.332,328.153,27.13L328.153,27.13z"/>
		</g>
	</g>
</g>
</svg>
